<?xml version="1.0" encoding="UTF-8"?>
<!DOCTYPE svg PUBLIC "-//W3C//DTD SVG 1.1//EN" "http://www.w3.org/Graphics/SVG/1.1/DTD/svg11.dtd">
<svg xmlns="http://www.w3.org/2000/svg" version="1.1" width="436px" height="161px" style="shape-rendering:geometricPrecision; text-rendering:geometricPrecision; image-rendering:optimizeQuality; fill-rule:evenodd; clip-rule:evenodd" xmlns:xlink="http://www.w3.org/1999/xlink">
<g><path style="opacity:1" fill="#0e0e0e" d="M -0.5,0.5 C -0.5,0.166667 -0.5,-0.166667 -0.5,-0.5C 9.5,-0.5 19.5,-0.5 29.5,-0.5C 39.5591,20.6185 49.8925,41.6185 60.5,62.5C 60.427,64.0269 61.0937,65.0269 62.5,65.5C 68.9084,76.6464 75.0751,87.9797 81,99.5C 82.0673,70.3813 80.734,41.3813 77,12.5C 76.2552,7.82761 74.7552,3.49428 72.5,-0.5C 82.5,-0.5 92.5,-0.5 102.5,-0.5C 98.753,14.2128 96.753,29.2128 96.5,44.5C 95.5017,77.6625 95.1684,110.996 95.5,144.5C 90.5,144.5 85.5,144.5 80.5,144.5C 78.5832,141.669 76.9166,138.669 75.5,135.5C 75.7148,133.821 75.0481,132.821 73.5,132.5C 58.0876,103.341 42.4209,74.3405 26.5,45.5C 26.5386,44.2438 26.0386,43.2438 25,42.5C 24.5034,44.8098 24.3367,47.1432 24.5,49.5C 24.6879,78.8767 25.6879,108.21 27.5,137.5C 27.1201,139.698 27.7868,141.365 29.5,142.5C 29.5,142.833 29.5,143.167 29.5,143.5C 25.6812,144.166 21.6812,144.499 17.5,144.5C 13.107,144.491 9.10703,143.824 5.5,142.5C 7.7463,133.329 8.91297,123.995 9,114.5C 10.0116,80.0972 9.01159,45.7638 6,11.5C 4.82772,7.14168 2.66105,3.47501 -0.5,0.5 Z"/></g>
<g><path style="opacity:0.361" fill="#b5b5b5" d="M 234.5,11.5 C 235.209,10.596 236.209,10.2627 237.5,10.5C 237.768,12.099 237.434,13.4324 236.5,14.5C 236.715,12.8212 236.048,11.8212 234.5,11.5 Z"/></g>
<g><path style="opacity:1" fill="#121212" d="M 234.5,11.5 C 236.048,11.8212 236.715,12.8212 236.5,14.5C 236.093,19.8228 235.76,25.1561 235.5,30.5C 235.267,36.0251 236.101,41.3584 238,46.5C 238.75,47.1258 239.584,47.6258 240.5,48C 250.161,48.4998 259.828,48.6665 269.5,48.5C 269.705,58.1785 264.872,62.8452 255,62.5C 250.661,62.249 246.494,61.249 242.5,59.5C 237.667,60.5035 235.167,63.5035 235,68.5C 233.804,85.6445 234.804,102.644 238,119.5C 240.861,129.53 247.361,135.53 257.5,137.5C 259.531,137.972 261.198,138.972 262.5,140.5C 261.572,145.422 258.572,147.756 253.5,147.5C 246.241,147.18 239.241,145.847 232.5,143.5C 232.027,142.094 231.027,141.427 229.5,141.5C 229.027,140.094 228.027,139.427 226.5,139.5C 220.672,134.182 217.172,127.515 216,119.5C 214.383,99.8052 212.883,80.1385 211.5,60.5C 211.5,58.5 210.5,57.5 208.5,57.5C 207.005,57.5852 206.005,56.9185 205.5,55.5C 207.552,53.122 209.552,50.7887 211.5,48.5C 212.906,48.0269 213.573,47.0269 213.5,45.5C 217.7,36.0974 222.2,26.7641 227,17.5C 228.793,14.5323 231.293,12.5323 234.5,11.5 Z"/></g>
<g><path style="opacity:0.427" fill="#bcbcbc" d="M 139.5,17.5 C 132.178,25.1467 127.511,34.1467 125.5,44.5C 125.799,37.434 127.632,30.7673 131,24.5C 133.436,21.5532 136.269,19.2199 139.5,17.5 Z"/></g>
<g><path style="opacity:0.22" fill="#c1c1c1" d="M 195.5,27.5 C 188.931,19.0395 181.597,18.3728 173.5,25.5C 170.639,28.9875 168.305,32.6541 166.5,36.5C 168.108,26.9603 173.608,20.9603 183,18.5C 189.458,18.5613 193.624,21.5613 195.5,27.5 Z"/></g>
<g><path style="opacity:1" fill="#1d1d1d" d="M 163.5,47.5 C 163.5,47.1667 163.5,46.8333 163.5,46.5C 165.605,43.5917 166.605,40.2583 166.5,36.5C 168.305,32.6541 170.639,28.9875 173.5,25.5C 181.597,18.3728 188.931,19.0395 195.5,27.5C 195.5,27.8333 195.5,28.1667 195.5,28.5C 196.833,35.5 196.833,42.5 195.5,49.5C 194.076,51.5145 193.41,53.8478 193.5,56.5C 190.928,62.9821 188.928,69.6488 187.5,76.5C 185.827,80.5773 187.16,83.5773 191.5,85.5C 193.507,89.2115 195.507,92.8781 197.5,96.5C 198.434,97.5676 198.768,98.901 198.5,100.5C 199.885,119.9 192.219,134.4 175.5,144C 163.93,146.662 152.263,147.162 140.5,145.5C 137.061,143.796 133.395,142.462 129.5,141.5C 128.209,141.737 127.209,141.404 126.5,140.5C 126.027,139.094 125.027,138.427 123.5,138.5C 117.413,133.749 112.413,128.082 108.5,121.5C 106.876,111.075 107.209,100.741 109.5,90.5C 111.86,88.2874 113.694,85.6207 115,82.5C 117.729,79.6007 120.562,76.934 123.5,74.5C 125.722,74.4413 126.722,73.2747 126.5,71C 125.574,62.531 125.241,54.031 125.5,45.5C 125.5,45.1667 125.5,44.8333 125.5,44.5C 127.511,34.1467 132.178,25.1467 139.5,17.5C 148.15,14.655 154.317,17.3217 158,25.5C 160.861,39.4415 161.028,53.4415 158.5,67.5C 159.5,67.5 160.5,67.5 161.5,67.5C 161.512,60.7613 162.179,54.0947 163.5,47.5 Z M 149.5,20.5 C 156.455,29.3332 158.122,38.9999 154.5,49.5C 155.057,51.2352 155.39,52.9018 155.5,54.5C 154.833,54.8333 154.167,55.1667 153.5,55.5C 153.863,56.1835 154.196,56.8501 154.5,57.5C 153.876,57.9169 153.543,58.5836 153.5,59.5C 154.011,63.0018 154.678,66.3351 155.5,69.5C 158.04,71.4127 160.707,71.746 163.5,70.5C 164.117,70.3893 164.617,70.056 165,69.5C 165.738,59.6633 167.405,49.9967 170,40.5C 171.94,35.6715 174.44,31.1715 177.5,27C 181.28,24.0354 185.113,23.8688 189,26.5C 192.74,33.4772 193.574,40.8106 191.5,48.5C 191.5,48.8333 191.5,49.1667 191.5,49.5C 189.742,52.8544 188.742,56.521 188.5,60.5C 186.355,66.6839 184.021,72.8506 181.5,79C 181.667,80.1667 181.833,81.3333 182,82.5C 189.353,88.5469 193.52,96.2136 194.5,105.5C 193.627,109.768 193.294,114.102 193.5,118.5C 191.455,121.579 189.622,124.912 188,128.5C 184.271,132.398 180.438,136.065 176.5,139.5C 172.952,140.13 169.619,141.13 166.5,142.5C 154.227,143.335 142.227,141.501 130.5,137C 126.612,134.228 122.612,131.728 118.5,129.5C 115.867,124.572 113.534,119.572 111.5,114.5C 111.089,107.241 111.922,99.9075 114,92.5C 117.396,84.7715 123.062,79.4382 131,76.5C 131.78,74.6131 131.613,72.9464 130.5,71.5C 129.556,60.1389 130.056,48.8055 132,37.5C 133.921,32.6608 136.088,27.9942 138.5,23.5C 141.921,21.6243 145.588,20.6243 149.5,20.5 Z"/></g>
<g><path style="opacity:0.055" fill="#e3e3e3" d="M 149.5,20.5 C 145.588,20.6243 141.921,21.6243 138.5,23.5C 141.449,19.6555 145.116,18.6555 149.5,20.5 Z"/></g>
<g><path style="opacity:0.102" fill="#c0c0c0" d="M 191.5,48.5 C 193.574,40.8106 192.74,33.4772 189,26.5C 185.113,23.8688 181.28,24.0354 177.5,27C 174.44,31.1715 171.94,35.6715 170,40.5C 167.405,49.9967 165.738,59.6633 165,69.5C 164.617,70.056 164.117,70.3893 163.5,70.5C 163.526,56.398 166.692,43.0646 173,30.5C 177.635,22.922 183.635,21.5886 191,26.5C 192.999,30.3938 193.832,34.5605 193.5,39C 193.333,41.8333 193.167,44.6667 193,47.5C 192.617,48.056 192.117,48.3893 191.5,48.5 Z"/></g>
<g><path style="opacity:0.086" fill="#e0e0e0" d="M 195.5,28.5 C 196.222,28.9175 196.722,29.5842 197,30.5C 197.167,33.1667 197.333,35.8333 197.5,38.5C 197.706,42.4687 197.039,46.1354 195.5,49.5C 196.833,42.5 196.833,35.5 195.5,28.5 Z"/></g>
<g><path style="opacity:0.412" fill="#b7b7b7" d="M 163.5,47.5 C 162.179,54.0947 161.512,60.7613 161.5,67.5C 160.5,67.5 159.5,67.5 158.5,67.5C 161.028,53.4415 160.861,39.4415 158,25.5C 154.317,17.3217 148.15,14.655 139.5,17.5C 146.02,13.2599 151.854,14.2599 157,20.5C 161.173,29.7768 162.84,39.4435 162,49.5C 162.278,48.5842 162.778,47.9175 163.5,47.5 Z"/></g>
<g><path style="opacity:0.369" fill="#b0b0b0" d="M 166.5,36.5 C 166.605,40.2583 165.605,43.5917 163.5,46.5C 163.288,42.6547 164.288,39.3214 166.5,36.5 Z"/></g>
<g><path style="opacity:0.015" fill="#e2e2e2" d="M 149.5,20.5 C 151.371,20.8588 152.871,21.8588 154,23.5C 155.846,26.5687 156.846,29.9021 157,33.5C 157.56,43.8453 157.393,54.1787 156.5,64.5C 155.549,65.9187 155.216,67.5853 155.5,69.5C 154.678,66.3351 154.011,63.0018 153.5,59.5C 153.543,58.5836 153.876,57.9169 154.5,57.5C 154.196,56.8501 153.863,56.1835 153.5,55.5C 154.167,55.1667 154.833,54.8333 155.5,54.5C 155.39,52.9018 155.057,51.2352 154.5,49.5C 158.122,38.9999 156.455,29.3332 149.5,20.5 Z"/></g>
<g><path style="opacity:1" fill="#141414" d="M 435.5,113.5 C 435.5,115.833 435.5,118.167 435.5,120.5C 433.351,133.157 426.017,141.324 413.5,145C 402.167,148.333 390.833,148.333 379.5,145C 372.969,142.791 367.969,138.791 364.5,133C 365.506,127.147 368.172,122.314 372.5,118.5C 374.749,117.92 376.415,116.587 377.5,114.5C 377.842,113.662 378.508,113.328 379.5,113.5C 381.06,115.156 382.06,117.156 382.5,119.5C 384.362,125.227 387.695,129.893 392.5,133.5C 392.821,135.048 393.821,135.715 395.5,135.5C 403.022,137.416 409.189,135.416 414,129.5C 415.877,122.42 413.711,116.92 407.5,113C 401.266,109.392 395.266,105.559 389.5,101.5C 389.027,100.094 388.027,99.427 386.5,99.5C 384.973,99.573 383.973,98.9063 383.5,97.5C 383.027,96.0937 382.027,95.427 380.5,95.5C 369.504,86.8438 366.171,75.8438 370.5,62.5C 371.906,62.0269 372.573,61.0269 372.5,59.5C 374.262,58.7377 375.262,57.4044 375.5,55.5C 377.027,55.573 378.027,54.9063 378.5,53.5C 380.336,51.412 382.669,50.0787 385.5,49.5C 388.152,49.5905 390.485,48.9238 392.5,47.5C 402.76,47.0317 413.093,46.865 423.5,47C 426.196,46.3102 428.363,44.8102 430,42.5C 433.909,50.5655 434.575,58.8989 432,67.5C 431.207,74.0846 428.54,79.7513 424,84.5C 422.438,77.9427 420.104,71.6094 417,65.5C 408.488,56.2513 399.488,55.5847 390,63.5C 388.04,70.4406 390.206,75.9406 396.5,80C 405.665,85.0814 414.665,90.4148 423.5,96C 429.652,100.505 433.652,106.338 435.5,113.5 Z"/></g>
<g><path style="opacity:0.049" fill="#e6e6e6" d="M 26.5,45.5 C 25.8333,46.8333 25.1667,48.1667 24.5,49.5C 24.3367,47.1432 24.5034,44.8098 25,42.5C 26.0386,43.2438 26.5386,44.2438 26.5,45.5 Z"/></g>
<g><path style="opacity:0.039" fill="#c9c9c9" d="M 138.5,23.5 C 136.088,27.9942 133.921,32.6608 132,37.5C 130.056,48.8055 129.556,60.1389 130.5,71.5C 127.604,58.5254 128.104,45.5254 132,32.5C 133.643,29.0386 135.81,26.0386 138.5,23.5 Z"/></g>
<g><path style="opacity:0.298" fill="#b1b1b1" d="M 213.5,45.5 C 213.573,47.0269 212.906,48.0269 211.5,48.5C 211.427,46.9731 212.094,45.9731 213.5,45.5 Z"/></g>
<g><path style="opacity:1" fill="#131313" d="M 301.5,119.5 C 301.12,121.698 301.787,123.365 303.5,124.5C 305.925,130.593 310.259,134.593 316.5,136.5C 319.304,137.638 322.304,137.805 325.5,137C 326.056,136.617 326.389,136.117 326.5,135.5C 327.605,134.4 328.938,133.733 330.5,133.5C 333.5,132.5 335.5,130.5 336.5,127.5C 336.833,126.5 337.5,125.833 338.5,125.5C 339.906,125.027 340.573,124.027 340.5,122.5C 341.973,119.553 343.473,116.553 345,113.5C 347.09,112.209 348.424,112.876 349,115.5C 351.611,128.441 347.111,137.941 335.5,144C 321.853,149.122 308.52,148.455 295.5,142C 287.448,136.407 281.948,128.907 279,119.5C 275.39,106.882 274.89,94.2152 277.5,81.5C 278.924,79.4855 279.59,77.1522 279.5,74.5C 279.402,72.4471 280.069,70.7804 281.5,69.5C 282.906,69.0269 283.573,68.0269 283.5,66.5C 285.755,61.2435 289.422,57.2435 294.5,54.5C 296.027,54.573 297.027,53.9063 297.5,52.5C 312.008,44.8723 326.675,44.7057 341.5,52C 350.53,60.7843 353.03,71.2843 349,83.5C 343.519,95.6476 334.352,103.481 321.5,107C 314.622,108.883 307.622,109.716 300.5,109.5C 300.616,112.86 300.949,116.193 301.5,119.5 Z M 325.5,86.5 C 324.094,86.9731 323.427,87.9731 323.5,89.5C 320.762,92.2463 317.762,94.5797 314.5,96.5C 311.341,97.3307 308.341,98.3307 305.5,99.5C 305.167,99.5 304.833,99.5 304.5,99.5C 302.833,99.5 301.167,99.5 299.5,99.5C 299.5,94.8333 299.5,90.1667 299.5,85.5C 300.418,77.8362 302.584,70.5028 306,63.5C 310.728,57.599 316.561,56.099 323.5,59C 328.146,64.3108 329.646,70.4775 328,77.5C 327.007,80.4741 326.174,83.4741 325.5,86.5 Z"/></g>
<g><path style="opacity:0.953" fill="#6d6d6d" d="M 392.5,47.5 C 390.485,48.9238 388.152,49.5905 385.5,49.5C 387.515,48.0762 389.848,47.4095 392.5,47.5 Z"/></g>
<g><path style="opacity:0.161" fill="#dadada" d="M 125.5,45.5 C 125.241,54.031 125.574,62.531 126.5,71C 126.722,73.2747 125.722,74.4413 123.5,74.5C 122.968,64.7234 123.635,55.0568 125.5,45.5 Z"/></g>
<g><path style="opacity:0.396" fill="#c7c7c7" d="M 191.5,49.5 C 191.874,53.6474 190.874,57.3141 188.5,60.5C 188.742,56.521 189.742,52.8544 191.5,49.5 Z"/></g>
<g><path style="opacity:0.71" fill="#919191" d="M 297.5,52.5 C 297.027,53.9063 296.027,54.573 294.5,54.5C 294.973,53.0937 295.973,52.427 297.5,52.5 Z"/></g>
<g><path style="opacity:0.745" fill="#838383" d="M 378.5,53.5 C 378.027,54.9063 377.027,55.573 375.5,55.5C 375.973,54.0937 376.973,53.427 378.5,53.5 Z"/></g>
<g><path style="opacity:0.506" fill="#7f7f7f" d="M 195.5,49.5 C 195.5,50.8333 195.5,52.1667 195.5,53.5C 194.833,54.5 194.167,55.5 193.5,56.5C 193.41,53.8478 194.076,51.5145 195.5,49.5 Z"/></g>
<g><path style="opacity:0.839" fill="#838383" d="M 375.5,55.5 C 375.262,57.4044 374.262,58.7377 372.5,59.5C 372.738,57.5956 373.738,56.2623 375.5,55.5 Z"/></g>
<g><path style="opacity:0.812" fill="#868686" d="M 208.5,57.5 C 210.5,57.5 211.5,58.5 211.5,60.5C 210.167,59.8333 209.167,58.8333 208.5,57.5 Z"/></g>
<g><path style="opacity:0.361" fill="#a1a1a1" d="M 372.5,59.5 C 372.573,61.0269 371.906,62.0269 370.5,62.5C 370.427,60.9731 371.094,59.9731 372.5,59.5 Z"/></g>
<g><path style="opacity:0.208" fill="#bbbbbb" d="M 60.5,62.5 C 61.9063,62.9731 62.573,63.9731 62.5,65.5C 61.0937,65.0269 60.427,64.0269 60.5,62.5 Z"/></g>
<g><path style="opacity:0.106" fill="#c8c8c8" d="M 195.5,53.5 C 194.002,61.6633 191.336,69.3299 187.5,76.5C 188.928,69.6488 190.928,62.9821 193.5,56.5C 194.167,55.5 194.833,54.5 195.5,53.5 Z"/></g>
<g><path style="opacity:0.38" fill="#9a9a9a" d="M 283.5,66.5 C 283.573,68.0269 282.906,69.0269 281.5,69.5C 281.427,67.9731 282.094,66.9731 283.5,66.5 Z"/></g>
<g><path style="opacity:0.573" fill="#7e7e7e" d="M 156.5,64.5 C 156.5,66.1667 156.5,67.8333 156.5,69.5C 158.806,69.9926 161.139,70.3259 163.5,70.5C 160.707,71.746 158.04,71.4127 155.5,69.5C 155.216,67.5853 155.549,65.9187 156.5,64.5 Z"/></g>
<g><path style="opacity:0.345" fill="#9f9f9f" d="M 96.5,44.5 C 96.5,78.1667 96.5,111.833 96.5,145.5C 90.9738,145.821 85.6405,145.488 80.5,144.5C 85.5,144.5 90.5,144.5 95.5,144.5C 95.1684,110.996 95.5017,77.6625 96.5,44.5 Z"/></g>
<g><path style="opacity:0.337" fill="#c5c5c5" d="M 123.5,74.5 C 120.562,76.934 117.729,79.6007 115,82.5C 113.694,85.6207 111.86,88.2874 109.5,90.5C 111.704,82.9654 116.371,77.632 123.5,74.5 Z"/></g>
<g><path style="opacity:0.145" fill="#c9c9c9" d="M 187.5,76.5 C 187.343,77.8734 187.51,79.2068 188,80.5C 189.802,81.7893 190.969,83.4559 191.5,85.5C 187.16,83.5773 185.827,80.5773 187.5,76.5 Z"/></g>
<g><path style="opacity:0.745" fill="#6e6e6e" d="M 279.5,74.5 C 279.59,77.1522 278.924,79.4855 277.5,81.5C 277.41,78.8478 278.076,76.5145 279.5,74.5 Z"/></g>
<g><path style="opacity:0.212" fill="#d1d1d1" d="M 188.5,60.5 C 187.724,66.9469 185.724,72.9469 182.5,78.5C 184.004,82.5144 186.504,85.8478 190,88.5C 192.072,91.9712 193.572,95.6379 194.5,99.5C 194.5,101.5 194.5,103.5 194.5,105.5C 193.52,96.2136 189.353,88.5469 182,82.5C 181.833,81.3333 181.667,80.1667 181.5,79C 184.021,72.8506 186.355,66.6839 188.5,60.5 Z"/></g>
<g><path style="opacity:0.431" fill="#9e9e9e" d="M 325.5,86.5 C 325.573,88.0269 324.906,89.0269 323.5,89.5C 323.427,87.9731 324.094,86.9731 325.5,86.5 Z"/></g>
<g><path style="opacity:0.176" fill="#c6c6c6" d="M 191.5,85.5 C 195.315,88.1274 197.315,91.7941 197.5,96.5C 195.507,92.8781 193.507,89.2115 191.5,85.5 Z"/></g>
<g><path style="opacity:0.769" fill="#868686" d="M 380.5,95.5 C 382.027,95.427 383.027,96.0937 383.5,97.5C 381.973,97.573 380.973,96.9063 380.5,95.5 Z"/></g>
<g><path style="opacity:0.012" fill="#cdcdcd" d="M 130.5,71.5 C 131.613,72.9464 131.78,74.6131 131,76.5C 123.062,79.4382 117.396,84.7715 114,92.5C 111.922,99.9075 111.089,107.241 111.5,114.5C 107.463,96.9056 113.463,83.9056 129.5,75.5C 130.429,74.3112 130.762,72.9778 130.5,71.5 Z"/></g>
<g><path style="opacity:0.345" fill="#929292" d="M 299.5,85.5 C 299.5,90.1667 299.5,94.8333 299.5,99.5C 301.167,99.5 302.833,99.5 304.5,99.5C 302.735,100.461 300.735,100.795 298.5,100.5C 298.179,95.3054 298.513,90.3054 299.5,85.5 Z"/></g>
<g><path style="opacity:0.949" fill="#616161" d="M 314.5,96.5 C 312.081,98.8624 309.081,99.8624 305.5,99.5C 308.341,98.3307 311.341,97.3307 314.5,96.5 Z"/></g>
<g><path style="opacity:0.565" fill="#7e7e7e" d="M 386.5,99.5 C 388.027,99.427 389.027,100.094 389.5,101.5C 387.973,101.573 386.973,100.906 386.5,99.5 Z"/></g>
<g><path style="opacity:0.998" fill="#232323" d="M 132.5,114.5 C 131.609,115.11 130.609,115.443 129.5,115.5C 127.576,113.91 127.243,112.076 128.5,110C 131.93,109.362 133.263,110.862 132.5,114.5 Z"/></g>
<g><path style="opacity:0.298" fill="#d7d7d7" d="M 132.5,114.5 C 133.263,110.862 131.93,109.362 128.5,110C 127.243,112.076 127.576,113.91 129.5,115.5C 128.504,115.586 127.671,115.252 127,114.5C 125.5,109.333 127.333,107.5 132.5,109C 135.124,110.969 135.124,112.802 132.5,114.5 Z"/></g>
<g><path style="opacity:0.514" fill="#909090" d="M 194.5,99.5 C 195.164,101.978 195.497,104.645 195.5,107.5C 195.706,111.469 195.039,115.135 193.5,118.5C 193.294,114.102 193.627,109.768 194.5,105.5C 194.5,103.5 194.5,101.5 194.5,99.5 Z"/></g>
<g><path style="opacity:0.235" fill="#c4c4c4" d="M 109.5,90.5 C 107.209,100.741 106.876,111.075 108.5,121.5C 106.816,116.612 105.816,111.445 105.5,106C 105.832,100.439 107.165,95.2725 109.5,90.5 Z"/></g>
<g><path style="opacity:0.125" fill="#cccccc" d="M 171.5,114.5 C 173.144,114.286 174.644,114.62 176,115.5C 177.848,121.653 175.848,123.653 170,121.5C 169.5,120.5 169,119.5 168.5,118.5C 169.91,117.431 170.91,116.097 171.5,114.5 Z"/></g>
<g><path style="opacity:0.007" fill="#f4f4f4" d="M 132.5,114.5 C 131.947,116.552 130.947,116.885 129.5,115.5C 130.609,115.443 131.609,115.11 132.5,114.5 Z"/></g>
<g><path style="opacity:1" fill="#171717" d="M 171.5,116.5 C 172.833,116.5 174.167,116.5 175.5,116.5C 176.244,119.95 174.91,121.616 171.5,121.5C 171.5,119.833 171.5,118.167 171.5,116.5 Z"/></g>
<g><path style="opacity:0.235" fill="#aaaaaa" d="M 379.5,113.5 C 380.209,112.596 381.209,112.263 382.5,112.5C 382.5,114.833 382.5,117.167 382.5,119.5C 382.06,117.156 381.06,115.156 379.5,113.5 Z"/></g>
<g><path style="opacity:0.91" fill="#656565" d="M 377.5,114.5 C 376.415,116.587 374.749,117.92 372.5,118.5C 373.585,116.413 375.251,115.08 377.5,114.5 Z"/></g>
<g><path style="opacity:0.941" fill="#7b7b7b" d="M 301.5,119.5 C 302.537,120.93 303.204,122.597 303.5,124.5C 301.787,123.365 301.12,121.698 301.5,119.5 Z"/></g>
<g><path style="opacity:0.537" fill="#8c8c8c" d="M 340.5,122.5 C 340.573,124.027 339.906,125.027 338.5,125.5C 338.427,123.973 339.094,122.973 340.5,122.5 Z"/></g>
<g><path style="opacity:0.071" fill="#c9c9c9" d="M 111.5,114.5 C 113.534,119.572 115.867,124.572 118.5,129.5C 113.988,125.615 111.654,120.615 111.5,114.5 Z"/></g>
<g><path style="opacity:0.235" fill="#c1c1c1" d="M 193.5,118.5 C 191.13,128.2 185.463,135.2 176.5,139.5C 180.438,136.065 184.271,132.398 188,128.5C 189.622,124.912 191.455,121.579 193.5,118.5 Z"/></g>
<g><path style="opacity:0.129" fill="#b5b5b5" d="M 108.5,121.5 C 112.413,128.082 117.413,133.749 123.5,138.5C 122.448,138.649 121.448,138.483 120.5,138C 117.984,135.317 115.317,132.817 112.5,130.5C 110.395,127.853 109.061,124.853 108.5,121.5 Z"/></g>
<g><path style="opacity:0.71" fill="#767676" d="M 336.5,127.5 C 335.5,130.5 333.5,132.5 330.5,133.5C 332.167,131.167 334.167,129.167 336.5,127.5 Z"/></g>
<g><path style="opacity:0.941" fill="#818181" d="M 73.5,132.5 C 75.0481,132.821 75.7148,133.821 75.5,135.5C 74.5987,134.71 73.9321,133.71 73.5,132.5 Z"/></g>
<g><path style="opacity:0.01" fill="#e0e0e0" d="M 146.5,123.5 C 149.587,123.747 152.42,124.747 155,126.5C 156.049,125.483 157.216,125.316 158.5,126C 158.786,129.095 158.786,132.262 158.5,135.5C 154.559,135.924 150.393,135.924 146,135.5C 144.067,131.422 144.234,127.422 146.5,123.5 Z"/></g>
<g><path style="opacity:1" fill="#1d1d1d" d="M 147.5,125.5 C 149.436,126.259 151.269,127.259 153,128.5C 154.578,127.453 156.078,127.453 157.5,128.5C 156.167,130.167 156.167,131.833 157.5,133.5C 157,133.833 156.5,134.167 156,134.5C 154.667,133.833 153.333,133.167 152,132.5C 149.419,134.14 147.252,133.806 145.5,131.5C 147.086,129.827 147.753,127.827 147.5,125.5 Z"/></g>
<g><path style="opacity:0.937" fill="#7e7e7e" d="M 392.5,133.5 C 393.71,133.932 394.71,134.599 395.5,135.5C 393.821,135.715 392.821,135.048 392.5,133.5 Z"/></g>
<g><path style="opacity:0.898" fill="#7c7c7c" d="M 326.5,135.5 C 326.389,136.117 326.056,136.617 325.5,137C 322.304,137.805 319.304,137.638 316.5,136.5C 319.902,136.658 323.236,136.324 326.5,135.5 Z"/></g>
<g><path style="opacity:0.333" fill="#a7a7a7" d="M 257.5,137.5 C 259.5,137.5 261.5,137.5 263.5,137.5C 263.737,138.791 263.404,139.791 262.5,140.5C 261.198,138.972 259.531,137.972 257.5,137.5 Z"/></g>
<g><path style="opacity:0.212" fill="#cacaca" d="M 123.5,138.5 C 125.027,138.427 126.027,139.094 126.5,140.5C 124.973,140.573 123.973,139.906 123.5,138.5 Z"/></g>
<g><path style="opacity:0.918" fill="#7f7f7f" d="M 27.5,137.5 C 28.5375,138.93 29.2041,140.597 29.5,142.5C 27.7868,141.365 27.1201,139.698 27.5,137.5 Z"/></g>
<g><path style="opacity:0.6" fill="#838383" d="M 226.5,139.5 C 228.027,139.427 229.027,140.094 229.5,141.5C 227.973,141.573 226.973,140.906 226.5,139.5 Z"/></g>
<g><path style="opacity:0.275" fill="#c9c9c9" d="M 176.5,139.5 C 173.619,141.68 170.286,142.68 166.5,142.5C 169.619,141.13 172.952,140.13 176.5,139.5 Z"/></g>
<g><path style="opacity:0.133" fill="#c9c9c9" d="M 129.5,141.5 C 133.395,142.462 137.061,143.796 140.5,145.5C 136.213,145.524 132.547,144.19 129.5,141.5 Z"/></g>
<g><path style="opacity:0.098" fill="#cbcbcb" d="M 118.5,129.5 C 122.612,131.728 126.612,134.228 130.5,137C 142.227,141.501 154.227,143.335 166.5,142.5C 152.144,145.382 138.477,143.215 125.5,136C 122.669,134.334 120.336,132.168 118.5,129.5 Z"/></g>
<g><path style="opacity:0.294" fill="#a4a4a4" d="M 229.5,141.5 C 231.027,141.427 232.027,142.094 232.5,143.5C 230.973,143.573 229.973,142.906 229.5,141.5 Z"/></g>
<g><path style="opacity:0.329" fill="#acacac" d="M 5.5,142.5 C 9.10703,143.824 13.107,144.491 17.5,144.5C 21.6812,144.499 25.6812,144.166 29.5,143.5C 30.0431,143.56 30.3764,143.893 30.5,144.5C 21.8589,145.498 13.1922,145.831 4.5,145.5C 4.26269,144.209 4.59603,143.209 5.5,142.5 Z"/></g>
<g><path style="opacity:0.335" fill="#c5c5c5" d="M 198.5,100.5 C 201.522,126.404 190.189,142.404 164.5,148.5C 161.459,148.417 158.459,148.417 155.5,148.5C 150.251,148.062 145.251,147.062 140.5,145.5C 152.263,147.162 163.93,146.662 175.5,144C 192.219,134.4 199.885,119.9 198.5,100.5 Z"/></g>
</svg>
